<?xml version="1.0" encoding="utf-8"?>
<!-- Generator: Adobe Illustrator 18.1.1, SVG Export Plug-In . SVG Version: 6.00 Build 0)  -->
<svg version="1.1" id="Layer_1" xmlns="http://www.w3.org/2000/svg" xmlns:xlink="http://www.w3.org/1999/xlink" x="0px" y="0px"
	 viewBox="15.8 0 153.7 30" enable-background="new 15.8 0 153.7 30" xml:space="preserve">
<path fill="#361539" d="M169.5,0H15.8v30h153.7V0z"/>
<g>
	<path fill="#FFFFFF" stroke="#FFFFFF" stroke-width="0.5" stroke-miterlimit="10" d="M61.8,19.8c-0.9,0-1.6-0.1-2.2-0.3
		c-0.6-0.2-1.2-0.4-1.7-0.7v-2H58c0.5,0.5,1.1,0.9,1.8,1.1c0.7,0.3,1.3,0.4,1.9,0.4c0.9,0,1.5-0.2,2-0.6s0.7-0.9,0.7-1.5
		c0-0.5-0.1-0.9-0.4-1.2c-0.2-0.3-0.6-0.5-1.1-0.7c-0.4-0.1-0.7-0.2-1-0.3c-0.3-0.1-0.7-0.2-1.2-0.3c-0.4-0.1-0.8-0.2-1.1-0.4
		c-0.3-0.2-0.6-0.4-0.9-0.7c-0.2-0.3-0.4-0.6-0.6-0.9c-0.1-0.4-0.2-0.8-0.2-1.2c0-1,0.4-1.8,1.1-2.4c0.8-0.7,1.7-1,2.9-1
		c0.7,0,1.3,0.1,1.9,0.2c0.6,0.1,1.2,0.3,1.7,0.6V10h-0.1c-0.4-0.3-0.9-0.7-1.5-0.9s-1.2-0.4-1.9-0.4c-0.7,0-1.3,0.2-1.8,0.5
		c-0.5,0.3-0.7,0.8-0.7,1.4c0,0.5,0.1,0.9,0.4,1.2c0.3,0.3,0.7,0.5,1.2,0.7c0.3,0.1,0.8,0.2,1.2,0.3c0.5,0.1,0.9,0.2,1.2,0.3
		c0.8,0.3,1.4,0.6,1.8,1.1c0.4,0.5,0.6,1.1,0.6,1.9c0,0.5-0.1,0.9-0.3,1.4c-0.2,0.5-0.5,0.8-0.8,1.2c-0.4,0.3-0.8,0.6-1.3,0.8
		C63.1,19.7,62.5,19.8,61.8,19.8z"/>
	<path fill="#FFFFFF" stroke="#FFFFFF" stroke-width="0.5" stroke-miterlimit="10" d="M69.2,9.1h-1.7V7.5h1.7V9.1z M69.1,19.6h-1.5
		v-9h1.5V19.6z"/>
	<path fill="#FFFFFF" stroke="#FFFFFF" stroke-width="0.5" stroke-miterlimit="10" d="M78.2,19.6h-1.5v-0.9
		c-0.2,0.2-0.4,0.4-0.6,0.5c-0.2,0.1-0.4,0.2-0.6,0.4c-0.2,0.1-0.4,0.2-0.7,0.2s-0.5,0.1-0.8,0.1c-0.5,0-0.9-0.1-1.4-0.3
		c-0.4-0.2-0.8-0.5-1.1-0.9c-0.3-0.4-0.5-0.9-0.7-1.5s-0.2-1.3-0.2-2c0-0.8,0.1-1.5,0.3-2.1c0.2-0.6,0.5-1.1,0.8-1.5
		c0.3-0.4,0.7-0.7,1.2-0.9c0.5-0.2,1-0.3,1.5-0.3c0.5,0,0.8,0,1.2,0.1s0.7,0.3,1.1,0.5V7h1.5L78.2,19.6L78.2,19.6z M76.7,17.4v-5.2
		c-0.4-0.2-0.7-0.3-1-0.4c-0.3-0.1-0.6-0.1-1-0.1c-0.8,0-1.4,0.3-1.8,0.9c-0.4,0.6-0.7,1.4-0.7,2.5c0,1.1,0.2,1.9,0.5,2.4
		c0.3,0.6,0.9,0.8,1.6,0.8c0.4,0,0.8-0.1,1.2-0.3C76,17.9,76.3,17.7,76.7,17.4z"/>
	<path fill="#FFFFFF" stroke="#FFFFFF" stroke-width="0.5" stroke-miterlimit="10" d="M87.3,19.6h-1.5v-0.9
		c-0.2,0.2-0.4,0.4-0.6,0.5c-0.2,0.1-0.4,0.2-0.6,0.4c-0.2,0.1-0.4,0.2-0.7,0.2c-0.2,0.1-0.5,0.1-0.8,0.1c-0.5,0-0.9-0.1-1.4-0.3
		c-0.4-0.2-0.8-0.5-1.1-0.9c-0.3-0.4-0.5-0.9-0.7-1.5c-0.2-0.6-0.2-1.3-0.2-2c0-0.8,0.1-1.5,0.3-2.1c0.2-0.6,0.5-1.1,0.8-1.5
		c0.3-0.4,0.7-0.7,1.2-0.9c0.5-0.2,1-0.3,1.5-0.3c0.5,0,0.8,0,1.2,0.1c0.3,0.1,0.7,0.3,1.1,0.5V7h1.5L87.3,19.6L87.3,19.6z
		 M85.8,17.4v-5.2c-0.4-0.2-0.7-0.3-1-0.4c-0.3-0.1-0.6-0.1-1-0.1c-0.8,0-1.4,0.3-1.8,0.9c-0.4,0.6-0.7,1.4-0.7,2.5
		c0,1.1,0.2,1.9,0.5,2.4c0.3,0.6,0.9,0.8,1.6,0.8c0.4,0,0.8-0.1,1.2-0.3S85.5,17.7,85.8,17.4z"/>
	<path fill="#FFFFFF" stroke="#FFFFFF" stroke-width="0.5" stroke-miterlimit="10" d="M96.6,19.6h-1.5v-5.1c0-0.4,0-0.8-0.1-1.2
		c0-0.4-0.1-0.6-0.2-0.9c-0.1-0.2-0.3-0.4-0.5-0.5c-0.2-0.1-0.5-0.2-0.9-0.2c-0.4,0-0.8,0.1-1.2,0.3c-0.4,0.2-0.8,0.5-1.2,0.8v6.7
		h-1.5V7H91v4.5c0.5-0.4,0.9-0.7,1.3-0.9c0.4-0.2,0.9-0.3,1.4-0.3c0.9,0,1.6,0.3,2.1,0.9s0.7,1.4,0.7,2.5L96.6,19.6L96.6,19.6z"/>
	<path fill="#FFFFFF" stroke="#FFFFFF" stroke-width="0.5" stroke-miterlimit="10" d="M103.7,18.6c-0.1,0.1-0.3,0.2-0.5,0.4
		c-0.2,0.2-0.4,0.3-0.6,0.4c-0.3,0.1-0.5,0.2-0.8,0.3c-0.2,0.1-0.6,0.1-1.1,0.1c-0.4,0-0.7-0.1-1.1-0.2c-0.3-0.1-0.6-0.3-0.9-0.6
		c-0.2-0.2-0.4-0.6-0.6-0.9c-0.1-0.4-0.2-0.7-0.2-1.1c0-0.6,0.1-1.2,0.4-1.6c0.3-0.4,0.7-0.8,1.2-1c0.5-0.2,1.1-0.4,1.8-0.5
		s1.4-0.2,2.2-0.2v-0.3c0-0.4-0.1-0.6-0.2-0.9s-0.3-0.4-0.5-0.5c-0.2-0.1-0.4-0.2-0.7-0.2s-0.6-0.1-0.9-0.1c-0.3,0-0.8,0.1-1.2,0.2
		s-0.9,0.3-1.4,0.5h-0.1v-1.5c0.3-0.1,0.7-0.2,1.2-0.3c0.5-0.1,1-0.1,1.5-0.1c0.6,0,1.1,0,1.6,0.1c0.4,0.1,0.8,0.3,1.1,0.5
		c0.3,0.2,0.6,0.6,0.7,1c0.2,0.4,0.2,0.9,0.2,1.4v6.2h-1.5L103.7,18.6L103.7,18.6z M103.7,17.4v-2.5c-0.4,0-0.8,0.1-1.4,0.1
		c-0.6,0.1-1,0.1-1.3,0.2c-0.4,0.1-0.7,0.3-1,0.6c-0.3,0.3-0.4,0.6-0.4,1.1c0,0.5,0.1,0.9,0.4,1.2c0.3,0.3,0.7,0.4,1.3,0.4
		c0.5,0,0.9-0.1,1.3-0.3C103,17.9,103.4,17.7,103.7,17.4z"/>
	<path fill="#FFFFFF" stroke="#FFFFFF" stroke-width="0.5" stroke-miterlimit="10" d="M121.9,19.6h-2.1l-3.8-4.8h-1.8v4.8h-1.6v-12
		h3.1c0.7,0,1.3,0,1.7,0.1c0.5,0.1,0.9,0.2,1.3,0.5c0.4,0.3,0.8,0.6,1,1c0.2,0.4,0.4,1,0.4,1.6c0,0.9-0.2,1.6-0.7,2.2
		c-0.4,0.6-1.1,1-1.8,1.3L121.9,19.6z M118.5,10.9c0-0.3-0.1-0.7-0.2-0.9c-0.1-0.3-0.3-0.5-0.6-0.7c-0.2-0.1-0.5-0.3-0.8-0.3
		c-0.3-0.1-0.7-0.1-1.1-0.1h-1.6v4.5h1.4c0.5,0,0.9,0,1.2-0.1c0.4-0.1,0.7-0.2,0.9-0.5c0.2-0.2,0.4-0.5,0.5-0.8
		C118.4,11.7,118.5,11.4,118.5,10.9z"/>
	<path fill="#FFFFFF" stroke="#FFFFFF" stroke-width="0.5" stroke-miterlimit="10" d="M126.4,19.8c-1.4,0-2.5-0.4-3.3-1.2
		c-0.8-0.8-1.2-2-1.2-3.4c0-1.5,0.4-2.6,1.2-3.5s1.8-1.3,3-1.3c0.6,0,1.1,0.1,1.5,0.2c0.4,0.2,0.8,0.4,1.1,0.8s0.6,0.8,0.7,1.3
		c0.2,0.5,0.3,1.1,0.3,1.8v0.8h-6.2c0,1,0.3,1.8,0.8,2.4s1.3,0.8,2.2,0.8c0.3,0,0.7,0,1-0.1c0.3-0.1,0.6-0.2,0.9-0.3
		c0.3-0.1,0.5-0.2,0.7-0.4s0.3-0.2,0.5-0.3h0.1V19c-0.2,0.1-0.4,0.2-0.7,0.3c-0.3,0.1-0.5,0.2-0.7,0.2c-0.3,0.1-0.6,0.1-0.8,0.2
		C127.1,19.8,126.8,19.8,126.4,19.8z M128.2,14.1c0-0.4-0.1-0.8-0.1-1.1s-0.2-0.5-0.4-0.7c-0.2-0.2-0.4-0.4-0.7-0.5
		c-0.3-0.1-0.6-0.2-1-0.2c-0.4,0-0.7,0.1-1,0.2c-0.3,0.1-0.5,0.3-0.8,0.5c-0.2,0.2-0.4,0.5-0.5,0.8c-0.1,0.3-0.2,0.6-0.2,1H128.2z"
		/>
	<path fill="#FFFFFF" stroke="#FFFFFF" stroke-width="0.5" stroke-miterlimit="10" d="M135.9,8.5L135.9,8.5c-0.2,0-0.4-0.1-0.7-0.1
		c-0.3,0-0.5-0.1-0.7-0.1c-0.6,0-1.1,0.1-1.4,0.4c-0.3,0.3-0.4,0.8-0.4,1.6v0.3h2.5v1.3h-2.5v7.7h-1.5v-7.7h-1v-1.3h1v-0.3
		c0-1.1,0.3-1.9,0.8-2.5c0.5-0.6,1.3-0.8,2.2-0.8c0.3,0,0.6,0,0.8,0c0.3,0,0.5,0.1,0.7,0.1L135.9,8.5L135.9,8.5z"/>
	<path fill="#FFFFFF" stroke="#FFFFFF" stroke-width="0.5" stroke-miterlimit="10" d="M138.1,9.1h-1.7V7.5h1.7V9.1z M138,19.6h-1.5
		v-9h1.5V19.6z"/>
	<path fill="#FFFFFF" stroke="#FFFFFF" stroke-width="0.5" stroke-miterlimit="10" d="M147.3,19.6h-1.5v-5.1c0-0.4,0-0.8-0.1-1.2
		c0-0.4-0.1-0.6-0.2-0.9c-0.1-0.2-0.3-0.4-0.5-0.5c-0.2-0.1-0.5-0.2-0.9-0.2c-0.4,0-0.8,0.1-1.2,0.3c-0.4,0.2-0.8,0.5-1.2,0.8v6.7
		h-1.5v-9h1.5v1c0.5-0.4,0.9-0.7,1.3-0.9c0.4-0.2,0.9-0.3,1.4-0.3c0.9,0,1.6,0.3,2.1,0.9c0.5,0.6,0.7,1.4,0.7,2.5L147.3,19.6
		L147.3,19.6z"/>
	<path fill="#FFFFFF" stroke="#FFFFFF" stroke-width="0.5" stroke-miterlimit="10" d="M153.3,19.8c-1.4,0-2.5-0.4-3.3-1.2
		c-0.8-0.8-1.2-2-1.2-3.4c0-1.5,0.4-2.6,1.2-3.5c0.8-0.9,1.8-1.3,3-1.3c0.6,0,1.1,0.1,1.5,0.2c0.4,0.2,0.8,0.4,1.1,0.8
		s0.6,0.8,0.7,1.3c0.2,0.5,0.3,1.1,0.3,1.8v0.8h-6.2c0,1,0.3,1.8,0.8,2.4c0.5,0.6,1.3,0.8,2.2,0.8c0.3,0,0.7,0,1-0.1
		c0.3-0.1,0.6-0.2,0.9-0.3c0.3-0.1,0.5-0.2,0.7-0.4s0.3-0.2,0.5-0.3h0.1V19c-0.2,0.1-0.4,0.2-0.7,0.3c-0.3,0.1-0.5,0.2-0.7,0.2
		c-0.3,0.1-0.6,0.1-0.8,0.2C154,19.8,153.7,19.8,153.3,19.8z M155.1,14.1c0-0.4-0.1-0.8-0.1-1.1c-0.1-0.3-0.2-0.5-0.4-0.7
		c-0.2-0.2-0.4-0.4-0.7-0.5c-0.3-0.1-0.6-0.2-1-0.2c-0.4,0-0.7,0.1-1,0.2c-0.3,0.1-0.5,0.3-0.8,0.5c-0.2,0.2-0.4,0.5-0.5,0.8
		c-0.1,0.3-0.2,0.6-0.2,1H155.1z"/>
	<path fill="#FFFFFF" stroke="#FFFFFF" stroke-width="0.5" stroke-miterlimit="10" d="M160.5,19.8c-0.6,0-1.2-0.1-1.7-0.2
		c-0.5-0.2-1-0.3-1.3-0.5v-1.7h0.1c0.1,0.1,0.3,0.2,0.5,0.3c0.2,0.1,0.4,0.3,0.7,0.4c0.3,0.1,0.5,0.2,0.8,0.3c0.3,0.1,0.6,0.1,1,0.1
		c0.2,0,0.5,0,0.8-0.1c0.3-0.1,0.5-0.1,0.6-0.2c0.2-0.1,0.3-0.3,0.4-0.4c0.1-0.1,0.1-0.3,0.1-0.6c0-0.4-0.1-0.6-0.3-0.8
		c-0.2-0.2-0.5-0.3-1-0.5c-0.2,0-0.4-0.1-0.8-0.2c-0.3-0.1-0.6-0.1-0.9-0.2c-0.7-0.2-1.2-0.5-1.5-0.9c-0.3-0.4-0.5-0.9-0.5-1.5
		c0-0.8,0.3-1.5,0.9-2c0.6-0.5,1.4-0.8,2.4-0.8c0.5,0,1,0.1,1.5,0.2c0.5,0.1,0.9,0.3,1.3,0.5v1.6h-0.1c-0.4-0.3-0.8-0.5-1.3-0.7
		c-0.5-0.2-1-0.3-1.4-0.3c-0.5,0-0.9,0.1-1.3,0.3s-0.5,0.5-0.5,1c0,0.4,0.1,0.7,0.3,0.8c0.2,0.2,0.5,0.3,1,0.5
		c0.2,0.1,0.5,0.1,0.8,0.2c0.3,0.1,0.6,0.1,0.9,0.2c0.7,0.2,1.2,0.4,1.5,0.8c0.3,0.4,0.5,0.9,0.5,1.6c0,0.4-0.1,0.8-0.2,1.1
		c-0.2,0.3-0.4,0.6-0.7,0.9c-0.3,0.3-0.7,0.5-1.1,0.6C161.6,19.7,161.1,19.8,160.5,19.8z"/>
</g>
<g>
	<g>
		<g>
			<defs>
				<path id="SVGID_1_" d="M33.8,13.8c0.3-0.2,0.7-0.3,1.2-0.2c0.6,0.2,0.6,0.9,0.3,1.2c-0.3,0.2-0.9,0.3-1-0.2
					c0-0.2,0.1-0.4,0.2-0.4c0.2-0.1,0.6,0.1,0.2,0.3c-0.3,0.1-0.2,0.4,0.2,0.3c0.4-0.1,0.5-1-0.4-1c0,0-0.9,0.1-0.8,0.9
					c0.1,0.6,0.6,0.9,1.2,0.9c0.7,0,1.2-0.5,1.2-1.2c0-0.6-0.6-1.2-1.3-1.2C34.4,13.2,34,13.4,33.8,13.8"/>
			</defs>
			<clipPath id="SVGID_2_">
				<use xlink:href="#SVGID_1_"  overflow="visible"/>
			</clipPath>
			
				<linearGradient id="SVGID_3_" gradientUnits="userSpaceOnUse" x1="-284.5359" y1="-297.0065" x2="-284.4774" y2="-297.0065" gradientTransform="matrix(41.2754 0 0 41.2754 11778.0713 12273.5244)">
				<stop  offset="0" style="stop-color:#A1A1A0"/>
				<stop  offset="0.3458" style="stop-color:#E7E7E7"/>
				<stop  offset="0.758" style="stop-color:#A7A6A6"/>
				<stop  offset="1" style="stop-color:#D1D1D1"/>
			</linearGradient>
			<rect x="33.7" y="13.2" clip-path="url(#SVGID_2_)" fill="url(#SVGID_3_)" width="2.5" height="2.4"/>
		</g>
	</g>
	<g>
		<g>
			<defs>
				<path id="SVGID_4_" d="M33.1,22.8c0,0-1.1,1.4-0.5,2.9c0.3,0.6,1,1.4,2.4,1.4c1.5-0.1,2.2-1,2.4-1.8c0.2-0.9,0-1.4-1-2.5
					c-0.6-0.7-0.2-0.7-0.5-0.9c-0.3,0-0.4,0.2-0.6,0.5c-0.2,0.5-0.3,0.6-0.7,1.1c-0.3,0.5,0,0.9,0,0.9s0.5,0.6,0.6-0.2
					c0.1-0.4,0.7-0.3,0.7,0.2c0,0.5-0.5,0.8-1,0.7c-0.8-0.1-1.4-0.7-0.7-2c0.5-0.8,1.2-1.9,1.2-1.9l-0.8-1L33.1,22.8z"/>
			</defs>
			<clipPath id="SVGID_5_">
				<use xlink:href="#SVGID_4_"  overflow="visible"/>
			</clipPath>
			
				<radialGradient id="SVGID_6_" cx="-284.7277" cy="-299.9516" r="5.840000e-002" gradientTransform="matrix(50.6528 0 0 50.6528 14457.1914 15217.1074)" gradientUnits="userSpaceOnUse">
				<stop  offset="0" style="stop-color:#FCDE00"/>
				<stop  offset="0.5" style="stop-color:#FBCD18"/>
				<stop  offset="1" style="stop-color:#D89228"/>
				<stop  offset="1" style="stop-color:#D89228"/>
			</radialGradient>
			<rect x="32" y="20.4" clip-path="url(#SVGID_5_)" fill="url(#SVGID_6_)" width="5.6" height="6.7"/>
		</g>
	</g>
	<g>
		<g>
			<defs>
				<path id="SVGID_7_" d="M29,17.8l0.9,0.1c0,0,2.6,0.2,1.1-0.3c-1.3-0.4-2.1-0.7-2.1-0.7L29,17.8z M39.2,17.7
					c-1.6,0.5,1.1,0.3,1.1,0.3l0.9-0.1l0.1-0.9C41.3,17,40.5,17.2,39.2,17.7 M25.5,17c0.8,0.2,1.8,0.4,2.8,0.6c0-0.3,0-0.6,0-0.8
					c-0.8-0.2-1.5-0.5-2.1-0.7C25.7,16.3,25.6,16.7,25.5,17 M42,16.8c0,0.2,0,0.5,0,0.8c1-0.2,2-0.4,2.8-0.6
					c-0.1-0.3-0.3-0.7-0.7-0.9C43.5,16.3,42.8,16.6,42,16.8 M22.9,16c0.5,0.3,1.2,0.6,2,0.8c0.3-0.4,0.7-0.7,0.9-0.9
					c-0.4-0.2-0.8-0.4-1-0.7L22.9,16z M44.4,15.9c0.3,0.2,0.6,0.5,0.9,0.9c0.8-0.2,1.4-0.5,2-0.8l-1.9-0.8
					C45.2,15.4,44.8,15.7,44.4,15.9 M21.4,14.7c0.2,0.4,0.6,0.7,1.2,1.1l2-0.8c-0.1-0.1-0.2-0.3-0.2-0.4L21.4,14.7z M45.6,15l2,0.8
					c0.6-0.3,1-0.7,1.2-1.1l-3-0.1C45.8,14.7,45.8,14.8,45.6,15 M21.2,14.1c0,0.1,0,0.2,0.1,0.3l3-0.1l0,0c0,0,0,0,0-0.1
					c0-0.2,0.1-0.4,0.2-0.5h0l-3.1-0.1C21.3,13.8,21.2,13.9,21.2,14.1 M45.8,13.7L45.8,13.7c0.1,0.2,0.2,0.4,0.2,0.5c0,0,0,0,0,0.1
					l0,0l3,0.1c0-0.1,0.1-0.2,0.1-0.3c0-0.2,0-0.3-0.1-0.5L45.8,13.7z M21.7,13.2l3.1,0.2c0.1-0.1,0.3-0.2,0.5-0.3l0,0l-2.9-0.4
					C22.1,12.8,21.9,13,21.7,13.2 M44.9,13L44.9,13c0.2,0.1,0.4,0.2,0.5,0.3l3.1-0.2c-0.2-0.2-0.5-0.4-0.8-0.6L44.9,13z M23,12.3
					l2.7,0.5c0.3-0.2,0.7-0.3,1.2-0.5l0,0l-1.7-0.7C24.3,11.9,23.6,12.1,23,12.3 M43.4,12.4L43.4,12.4c0.4,0.1,0.8,0.3,1.2,0.5
					l2.7-0.5c-0.6-0.3-1.3-0.5-2.1-0.7L43.4,12.4z M25.6,11.5l1.9,0.7c0.3-0.1,0.6-0.2,1-0.2l-0.4-0.9
					C27.2,11.2,26.3,11.4,25.6,11.5 M41.7,12c0.3,0.1,0.7,0.1,1,0.2l1.9-0.7c-0.8-0.2-1.6-0.3-2.5-0.4L41.7,12z M30.8,11
					c-1.2,0-2,0.1-2,0.1l0.3,0.7c0,0,1.1-0.2,1.7-0.3C31.3,11.4,31.7,11,30.8,11C30.8,11,30.8,11,30.8,11 M39.5,11.5
					c0.6,0.1,1.7,0.3,1.7,0.3l0.3-0.7c0,0-0.9-0.1-2-0.1C38.5,11,38.9,11.4,39.5,11.5"/>
			</defs>
			<clipPath id="SVGID_8_">
				<use xlink:href="#SVGID_7_"  overflow="visible"/>
			</clipPath>
			
				<linearGradient id="SVGID_9_" gradientUnits="userSpaceOnUse" x1="-283.1662" y1="-297.0023" x2="-283.1078" y2="-297.0023" gradientTransform="matrix(474.982 0 0 474.982 134520.0938 141085.3438)">
				<stop  offset="0" style="stop-color:#A1A1A0"/>
				<stop  offset="0.3458" style="stop-color:#E7E7E7"/>
				<stop  offset="0.758" style="stop-color:#A7A6A6"/>
				<stop  offset="1" style="stop-color:#D1D1D1"/>
			</linearGradient>
			<rect x="21.2" y="11" clip-path="url(#SVGID_8_)" fill="url(#SVGID_9_)" width="27.8" height="7.1"/>
		</g>
	</g>
	<g>
		<g>
			<defs>
				<path id="SVGID_10_" d="M30.9,16.4l0.5,0.1c0,0,1.4,0.1,0.6-0.2c-0.7-0.2-1.1-0.4-1.1-0.4L30.9,16.4z M38.1,16.3
					c-0.8,0.3,0.6,0.2,0.6,0.2l0.5-0.1l0-0.5C39.1,15.9,38.7,16,38.1,16.3 M29,15.9c0.4,0.1,0.9,0.2,1.5,0.3c0-0.2,0-0.3,0-0.4
					c-0.4-0.1-0.8-0.3-1.1-0.4C29.2,15.5,29.1,15.7,29,15.9 M39.5,15.8c0,0.1,0,0.3,0,0.4c0.5-0.1,1-0.2,1.5-0.3
					c0-0.2-0.2-0.4-0.4-0.5C40.3,15.5,39.9,15.7,39.5,15.8 M27.7,15.4c0.3,0.2,0.6,0.3,1,0.4c0.1-0.2,0.3-0.4,0.5-0.5
					c-0.2-0.1-0.4-0.2-0.5-0.4L27.7,15.4z M40.8,15.3c0.1,0.1,0.3,0.3,0.5,0.5c0.4-0.1,0.8-0.3,1-0.4l-1-0.4
					C41.2,15,41,15.2,40.8,15.3 M26.9,14.6c0.1,0.2,0.3,0.4,0.6,0.6l1.1-0.5c-0.1-0.1-0.1-0.2-0.1-0.2L26.9,14.6z M41.4,14.8
					l1.1,0.5c0.3-0.2,0.5-0.4,0.6-0.6l-1.6-0.1C41.5,14.6,41.5,14.7,41.4,14.8 M26.8,14.3c0,0.1,0,0.1,0,0.2l1.6-0.1l0,0
					c0,0,0,0,0,0c0-0.1,0-0.2,0.1-0.3h0L26.9,14C26.8,14.1,26.8,14.2,26.8,14.3 M41.5,14.1L41.5,14.1c0.1,0.1,0.1,0.2,0.1,0.3
					c0,0,0,0,0,0l0,0l1.6,0.1c0-0.1,0-0.1,0-0.2c0-0.1,0-0.2-0.1-0.3L41.5,14.1z M27,13.8l1.7,0.1c0.1-0.1,0.2-0.1,0.3-0.2l0,0
					l-1.5-0.2C27.3,13.6,27.1,13.7,27,13.8 M41.1,13.7L41.1,13.7c0.1,0.1,0.2,0.1,0.3,0.2l1.7-0.1c-0.1-0.1-0.2-0.2-0.4-0.3
					L41.1,13.7z M27.8,13.3l1.4,0.3c0.2-0.1,0.4-0.2,0.6-0.2l0,0L28.9,13C28.4,13.1,28.1,13.2,27.8,13.3 M40.2,13.4L40.2,13.4
					c0.2,0.1,0.4,0.2,0.6,0.2l1.4-0.3c-0.3-0.1-0.7-0.3-1.1-0.4L40.2,13.4z M29.1,12.9l1,0.4c0.2,0,0.3-0.1,0.5-0.1l-0.2-0.5
					C30,12.7,29.5,12.8,29.1,12.9 M39.4,13.1c0.2,0,0.4,0.1,0.5,0.1l1-0.4c-0.4-0.1-0.8-0.2-1.3-0.2L39.4,13.1z M31.8,12.6
					c-0.6,0-1.1,0-1.1,0l0.2,0.4c0,0,0.6-0.1,0.9-0.2C32.1,12.8,32.3,12.6,31.8,12.6L31.8,12.6 M38.2,12.9c0.3,0.1,0.9,0.2,0.9,0.2
					l0.2-0.4c0,0-0.5,0-1.1,0C37.7,12.6,37.9,12.8,38.2,12.9"/>
			</defs>
			<clipPath id="SVGID_11_">
				<use xlink:href="#SVGID_10_"  overflow="visible"/>
			</clipPath>
			
				<linearGradient id="SVGID_12_" gradientUnits="userSpaceOnUse" x1="-283.2553" y1="-297.0055" x2="-283.1968" y2="-297.0055" gradientTransform="matrix(280.0182 0 0 280.0182 79343.4609 83181.5234)">
				<stop  offset="0" style="stop-color:#A1A1A0"/>
				<stop  offset="0.3458" style="stop-color:#E7E7E7"/>
				<stop  offset="0.758" style="stop-color:#A7A6A6"/>
				<stop  offset="1" style="stop-color:#D1D1D1"/>
			</linearGradient>
			<rect x="26.8" y="12.6" clip-path="url(#SVGID_11_)" fill="url(#SVGID_12_)" width="16.4" height="3.9"/>
		</g>
	</g>
	<g>
		<g>
			<defs>
				<rect id="SVGID_13_" x="17.8" y="1.1" width="34.7" height="26.8"/>
			</defs>
			<clipPath id="SVGID_14_">
				<use xlink:href="#SVGID_13_"  overflow="visible"/>
			</clipPath>
			<path clip-path="url(#SVGID_14_)" fill="#D89228" d="M34.3,7.7l0.8,1l1.7-2.4c0,0,1.1-1.4,0.5-2.9c-0.3-0.6-1-1.4-2.4-1.4
				c-1.5,0.1-2.2,1-2.4,1.8c-0.2,0.9,0,1.4,1,2.5C34,6.9,33.6,7,33.9,7.1c0.3,0,0.4-0.2,0.6-0.5c0.2-0.5,0.3-0.6,0.7-1.1
				c0.3-0.5,0-0.9,0-0.9S34.8,4,34.6,4.7c-0.1,0.4-0.7,0.3-0.7-0.2c0-0.5,0.5-0.8,1-0.7c0.8,0.1,1.4,0.7,0.7,2
				C35,6.6,34.3,7.7,34.3,7.7"/>
		</g>
		<g>
			<defs>
				<rect id="SVGID_15_" x="17.8" y="1.1" width="34.7" height="26.8"/>
			</defs>
			<clipPath id="SVGID_16_">
				<use xlink:href="#SVGID_15_"  overflow="visible"/>
			</clipPath>
			<path clip-path="url(#SVGID_16_)" fill="#D89228" d="M34.3,10.4C34.3,10.4,34.3,10.4,34.3,10.4c0.1-0.2,0.2-0.3,0.3-0.4
				c0,0,0.3-0.5,0.3-0.5c0.1,0.2,0.3,0.3,0.4,0.5c0.3,0.4,0.6,0.7,0.6,1.2c0,0.5-0.5,0.8-1,0.8c-0.3,0-0.6-0.2-0.7-0.5
				c0-0.1-0.1-0.1-0.1-0.2C34,11,34.1,10.6,34.3,10.4"/>
		</g>
	</g>
	<g>
		<g>
			<defs>
				<path id="SVGID_17_" d="M34,17.9c0,0.5,0.3,0.9,0.6,1.2c0.1,0.2,0.3,0.3,0.4,0.5c0,0,0.3-0.4,0.3-0.5c0.1-0.1,0.2-0.3,0.3-0.4
					c0,0,0,0,0,0c0.2-0.3,0.3-0.6,0.2-0.9c0-0.1,0-0.1-0.1-0.2c-0.1-0.3-0.4-0.4-0.7-0.5c0,0-0.1,0-0.1,0
					C34.5,17.1,34.1,17.4,34,17.9"/>
			</defs>
			<clipPath id="SVGID_18_">
				<use xlink:href="#SVGID_17_"  overflow="visible"/>
			</clipPath>
			
				<radialGradient id="SVGID_19_" cx="-286.8297" cy="-300.3579" r="5.834576e-002" gradientTransform="matrix(18.6765 0 0 18.6765 5391.9097 5627.9668)" gradientUnits="userSpaceOnUse">
				<stop  offset="0" style="stop-color:#FCDE00"/>
				<stop  offset="0.5" style="stop-color:#FBCD18"/>
				<stop  offset="1" style="stop-color:#D89228"/>
				<stop  offset="1" style="stop-color:#D89228"/>
			</radialGradient>
			<rect x="34" y="17.1" clip-path="url(#SVGID_18_)" fill="url(#SVGID_19_)" width="1.9" height="2.5"/>
		</g>
	</g>
</g>
</svg>
