<?xml version="1.0" encoding="iso-8859-1"?>
<!-- Generator: Adobe Illustrator 18.1.1, SVG Export Plug-In . SVG Version: 6.00 Build 0)  -->
<svg version="1.1" id="Layer_1" xmlns="http://www.w3.org/2000/svg" xmlns:xlink="http://www.w3.org/1999/xlink" x="0px" y="0px"
	 viewBox="0 0 196.5 40" style="enable-background:new 0 0 196.5 40;" xml:space="preserve">
<path style="fill:#361539;" d="M196.5,0H0v40h196.5V0z"/>
<g>
	<path style="fill:#FFFFFF;stroke:#FFFFFF;stroke-width:0.5;stroke-miterlimit:10;" d="M55.959,26.379
		c-1.16,0-2.147-0.12-2.959-0.359c-0.813-0.24-1.578-0.535-2.293-0.887v-2.664h0.15c0.702,0.659,1.497,1.17,2.385,1.531
		c0.888,0.361,1.744,0.542,2.567,0.542c1.174,0,2.063-0.245,2.664-0.735s0.902-1.137,0.902-1.939c0-0.637-0.158-1.156-0.473-1.557
		c-0.315-0.401-0.816-0.698-1.504-0.892c-0.494-0.143-0.945-0.261-1.354-0.354c-0.408-0.093-0.92-0.218-1.536-0.376
		c-0.552-0.143-1.046-0.326-1.482-0.548c-0.437-0.222-0.824-0.512-1.16-0.87c-0.33-0.351-0.585-0.764-0.768-1.241
		c-0.183-0.476-0.274-1.026-0.274-1.649c0-1.296,0.505-2.383,1.515-3.26c1.01-0.877,2.299-1.316,3.867-1.316
		c0.895,0,1.742,0.09,2.541,0.269c0.798,0.179,1.538,0.434,2.218,0.763v2.546h-0.161c-0.509-0.465-1.16-0.872-1.955-1.219
		c-0.795-0.347-1.629-0.521-2.503-0.521c-0.988,0-1.787,0.231-2.396,0.693c-0.609,0.462-0.913,1.069-0.913,1.821
		c0,0.681,0.179,1.221,0.537,1.622c0.358,0.401,0.877,0.695,1.558,0.881c0.451,0.122,1.002,0.26,1.654,0.414
		c0.651,0.154,1.192,0.295,1.622,0.424c1.103,0.337,1.908,0.845,2.417,1.525c0.508,0.681,0.763,1.519,0.763,2.513
		c0,0.623-0.127,1.239-0.381,1.848c-0.254,0.609-0.611,1.125-1.069,1.547c-0.516,0.466-1.098,0.824-1.746,1.074
		C57.744,26.254,56.933,26.379,55.959,26.379z"/>
	<path style="fill:#FFFFFF;stroke:#FFFFFF;stroke-width:0.5;stroke-miterlimit:10;" d="M65.799,12.082H63.5V9.987h2.299V12.082z
		 M65.659,26.089h-2.02V14.09h2.02V26.089z"/>
	<path style="fill:#FFFFFF;stroke:#FFFFFF;stroke-width:0.5;stroke-miterlimit:10;" d="M77.862,26.089h-2.02v-1.225
		c-0.315,0.266-0.587,0.483-0.816,0.655c-0.229,0.172-0.498,0.33-0.806,0.473c-0.287,0.136-0.584,0.242-0.892,0.317
		c-0.308,0.075-0.666,0.112-1.074,0.112c-0.652,0-1.255-0.136-1.81-0.408c-0.555-0.271-1.026-0.669-1.413-1.192
		c-0.394-0.529-0.698-1.183-0.913-1.96s-0.322-1.671-0.322-2.68c0-1.053,0.136-1.964,0.408-2.734
		c0.272-0.77,0.648-1.441,1.128-2.014c0.437-0.522,0.965-0.933,1.584-1.23c0.619-0.297,1.269-0.446,1.95-0.446
		c0.602,0,1.124,0.066,1.568,0.199c0.444,0.133,0.913,0.338,1.407,0.618V9.375h2.02V26.089z M75.843,23.167V16.25
		c-0.501-0.243-0.951-0.412-1.348-0.505c-0.397-0.093-0.829-0.14-1.294-0.14c-1.039,0-1.852,0.389-2.438,1.166
		c-0.587,0.777-0.881,1.9-0.881,3.368c0,1.411,0.226,2.491,0.677,3.239s1.174,1.122,2.17,1.122c0.53,0,1.063-0.119,1.601-0.359
		S75.37,23.575,75.843,23.167z"/>
	<path style="fill:#FFFFFF;stroke:#FFFFFF;stroke-width:0.5;stroke-miterlimit:10;" d="M90.023,26.089h-2.02v-1.225
		c-0.316,0.266-0.588,0.483-0.816,0.655c-0.23,0.172-0.498,0.33-0.807,0.473c-0.285,0.136-0.584,0.242-0.891,0.317
		c-0.309,0.075-0.666,0.112-1.074,0.112c-0.652,0-1.256-0.136-1.811-0.408c-0.555-0.271-1.026-0.669-1.413-1.192
		c-0.394-0.529-0.698-1.183-0.913-1.96s-0.322-1.671-0.322-2.68c0-1.053,0.136-1.964,0.408-2.734
		c0.272-0.77,0.648-1.441,1.128-2.014c0.437-0.522,0.965-0.933,1.584-1.23c0.619-0.297,1.27-0.446,1.949-0.446
		c0.602,0,1.125,0.066,1.568,0.199c0.445,0.133,0.914,0.338,1.408,0.618V9.375h2.02V26.089z M88.003,23.167V16.25
		c-0.502-0.243-0.951-0.412-1.348-0.505c-0.398-0.093-0.83-0.14-1.295-0.14c-1.039,0-1.852,0.389-2.439,1.166
		c-0.587,0.777-0.881,1.9-0.881,3.368c0,1.411,0.226,2.491,0.677,3.239s1.174,1.122,2.17,1.122c0.529,0,1.063-0.119,1.6-0.359
		S87.531,23.575,88.003,23.167z"/>
	<path style="fill:#FFFFFF;stroke:#FFFFFF;stroke-width:0.5;stroke-miterlimit:10;" d="M102.376,26.089h-2.02v-6.832
		c0-0.551-0.027-1.065-0.08-1.542c-0.055-0.476-0.156-0.857-0.307-1.144c-0.165-0.301-0.394-0.524-0.688-0.671
		c-0.294-0.146-0.694-0.22-1.203-0.22c-0.501,0-1.019,0.134-1.553,0.403c-0.533,0.269-1.054,0.618-1.563,1.047v8.958h-2.02V9.375
		h2.02v6.048c0.602-0.537,1.196-0.949,1.783-1.235c0.587-0.286,1.207-0.43,1.858-0.43c1.182,0,2.105,0.389,2.771,1.166
		c0.666,0.777,0.999,1.903,0.999,3.378V26.089z"/>
	<path style="fill:#FFFFFF;stroke:#FFFFFF;stroke-width:0.5;stroke-miterlimit:10;" d="M111.916,24.811
		c-0.165,0.122-0.385,0.292-0.66,0.511c-0.276,0.219-0.543,0.392-0.801,0.521c-0.358,0.187-0.703,0.329-1.037,0.43
		c-0.332,0.101-0.8,0.15-1.401,0.15c-0.494,0-0.963-0.093-1.407-0.279c-0.444-0.186-0.834-0.447-1.171-0.784
		c-0.322-0.329-0.58-0.735-0.773-1.219s-0.29-0.994-0.29-1.531c0-0.83,0.176-1.537,0.526-2.121c0.351-0.583,0.906-1.047,1.665-1.391
		c0.673-0.308,1.468-0.521,2.385-0.639s1.905-0.206,2.965-0.263v-0.387c0-0.473-0.071-0.854-0.215-1.144s-0.344-0.514-0.602-0.671
		c-0.258-0.165-0.573-0.274-0.945-0.328s-0.756-0.081-1.149-0.081c-0.466,0-1.014,0.07-1.644,0.209s-1.261,0.342-1.891,0.607h-0.118
		v-2.052c0.372-0.107,0.906-0.226,1.601-0.354s1.382-0.193,2.063-0.193c0.823,0,1.519,0.064,2.084,0.193s1.074,0.362,1.525,0.698
		c0.437,0.33,0.763,0.756,0.978,1.278c0.215,0.523,0.322,1.16,0.322,1.912v8.207h-2.008V24.811z M111.916,23.135v-3.33
		c-0.479,0.043-1.087,0.102-1.82,0.177c-0.734,0.075-1.327,0.181-1.778,0.317c-0.537,0.165-0.981,0.417-1.332,0.757
		s-0.526,0.814-0.526,1.423c0,0.688,0.193,1.207,0.58,1.558c0.387,0.352,0.952,0.526,1.697,0.526c0.638,0,1.214-0.138,1.729-0.413
		S111.464,23.536,111.916,23.135z"/>
	<path style="fill:#FFFFFF;stroke:#FFFFFF;stroke-width:0.5;stroke-miterlimit:10;" d="M136.181,26.089h-2.761l-5.07-6.359h-2.428
		v6.359h-2.127V10.094h4.125c0.917,0,1.685,0.05,2.304,0.15c0.62,0.101,1.209,0.333,1.768,0.698c0.559,0.358,1.001,0.82,1.326,1.386
		c0.326,0.566,0.489,1.268,0.489,2.105c0,1.175-0.297,2.156-0.892,2.943c-0.595,0.788-1.403,1.372-2.428,1.751L136.181,26.089z
		 M131.583,14.595c0-0.465-0.082-0.879-0.247-1.241c-0.165-0.361-0.419-0.657-0.763-0.886c-0.301-0.2-0.651-0.342-1.053-0.424
		c-0.401-0.082-0.898-0.124-1.493-0.124h-2.105v6.037h1.869c0.608,0,1.156-0.054,1.644-0.161s0.902-0.329,1.246-0.666
		c0.308-0.301,0.535-0.659,0.682-1.074C131.51,15.641,131.583,15.154,131.583,14.595z"/>
	<path style="fill:#FFFFFF;stroke:#FFFFFF;stroke-width:0.5;stroke-miterlimit:10;" d="M142.1,26.368
		c-1.912,0-3.396-0.538-4.452-1.616c-1.057-1.078-1.585-2.608-1.585-4.592c0-1.955,0.512-3.511,1.536-4.667
		c1.024-1.156,2.363-1.735,4.018-1.735c0.745,0,1.403,0.107,1.977,0.322s1.074,0.552,1.504,1.01c0.43,0.458,0.759,1.019,0.988,1.681
		c0.229,0.663,0.344,1.474,0.344,2.433v1.096h-8.314c0,1.396,0.351,2.463,1.053,3.201c0.702,0.738,1.672,1.106,2.911,1.106
		c0.444,0,0.879-0.05,1.306-0.15c0.426-0.1,0.811-0.229,1.154-0.387c0.365-0.164,0.673-0.323,0.924-0.478s0.458-0.299,0.623-0.436
		h0.118v2.202c-0.236,0.094-0.53,0.21-0.881,0.35s-0.666,0.249-0.945,0.327c-0.394,0.107-0.75,0.189-1.069,0.247
		C142.989,26.34,142.587,26.368,142.1,26.368z M144.463,18.752c-0.015-0.544-0.079-1.013-0.193-1.407
		c-0.114-0.394-0.279-0.727-0.494-0.999c-0.236-0.301-0.539-0.53-0.907-0.688c-0.369-0.157-0.826-0.236-1.37-0.236
		c-0.537,0-0.993,0.081-1.37,0.242c-0.375,0.161-0.718,0.396-1.025,0.704c-0.301,0.315-0.53,0.665-0.688,1.047
		c-0.157,0.383-0.258,0.829-0.301,1.337H144.463z"/>
	<path style="fill:#FFFFFF;stroke:#FFFFFF;stroke-width:0.5;stroke-miterlimit:10;" d="M154.786,11.308h-0.107
		c-0.179-0.064-0.437-0.127-0.773-0.188c-0.337-0.061-0.638-0.091-0.902-0.091c-0.853,0-1.459,0.192-1.82,0.575
		c-0.362,0.383-0.543,1.076-0.543,2.079v0.408h3.341v1.676h-3.276v10.323h-2.02V15.766h-1.364V14.09h1.364v-0.397
		c0-1.446,0.348-2.546,1.042-3.298s1.69-1.128,2.986-1.128c0.372,0,0.737,0.02,1.096,0.059c0.358,0.04,0.684,0.084,0.978,0.134
		V11.308z"/>
	<path style="fill:#FFFFFF;stroke:#FFFFFF;stroke-width:0.5;stroke-miterlimit:10;" d="M157.676,12.082h-2.299V9.987h2.299V12.082z
		 M157.536,26.089h-2.02V14.09h2.02V26.089z"/>
	<path style="fill:#FFFFFF;stroke:#FFFFFF;stroke-width:0.5;stroke-miterlimit:10;" d="M169.933,26.089h-2.02v-6.832
		c0-0.551-0.027-1.065-0.08-1.542c-0.055-0.476-0.156-0.857-0.307-1.144c-0.165-0.301-0.394-0.524-0.688-0.671
		c-0.294-0.146-0.694-0.22-1.203-0.22c-0.501,0-1.019,0.134-1.553,0.403c-0.533,0.269-1.054,0.618-1.563,1.047v8.958h-2.02V14.09
		h2.02v1.332c0.602-0.537,1.196-0.949,1.783-1.235c0.587-0.286,1.207-0.43,1.858-0.43c1.182,0,2.105,0.389,2.771,1.166
		c0.666,0.777,0.999,1.903,0.999,3.378V26.089z"/>
	<path style="fill:#FFFFFF;stroke:#FFFFFF;stroke-width:0.5;stroke-miterlimit:10;" d="M177.979,26.368
		c-1.912,0-3.396-0.538-4.452-1.616c-1.057-1.078-1.585-2.608-1.585-4.592c0-1.955,0.512-3.511,1.536-4.667
		c1.024-1.156,2.363-1.735,4.018-1.735c0.745,0,1.403,0.107,1.977,0.322s1.074,0.552,1.504,1.01c0.43,0.458,0.759,1.019,0.988,1.681
		c0.229,0.663,0.344,1.474,0.344,2.433v1.096h-8.314c0,1.396,0.351,2.463,1.053,3.201c0.702,0.738,1.672,1.106,2.911,1.106
		c0.444,0,0.879-0.05,1.306-0.15c0.426-0.1,0.811-0.229,1.154-0.387c0.365-0.164,0.673-0.323,0.924-0.478s0.458-0.299,0.623-0.436
		h0.118v2.202c-0.236,0.094-0.53,0.21-0.881,0.35s-0.666,0.249-0.945,0.327c-0.394,0.107-0.75,0.189-1.069,0.247
		C178.868,26.34,178.466,26.368,177.979,26.368z M180.342,18.752c-0.015-0.544-0.079-1.013-0.193-1.407
		c-0.114-0.394-0.279-0.727-0.494-0.999c-0.236-0.301-0.539-0.53-0.907-0.688c-0.369-0.157-0.826-0.236-1.37-0.236
		c-0.537,0-0.993,0.081-1.37,0.242c-0.375,0.161-0.718,0.396-1.025,0.704c-0.301,0.315-0.53,0.665-0.688,1.047
		c-0.157,0.383-0.258,0.829-0.301,1.337H180.342z"/>
	<path style="fill:#FFFFFF;stroke:#FFFFFF;stroke-width:0.5;stroke-miterlimit:10;" d="M187.593,26.379
		c-0.802,0-1.553-0.107-2.25-0.322c-0.699-0.215-1.277-0.443-1.735-0.688v-2.267h0.107c0.172,0.137,0.374,0.287,0.606,0.451
		c0.233,0.165,0.543,0.337,0.93,0.516c0.344,0.158,0.722,0.298,1.133,0.419c0.412,0.122,0.84,0.183,1.284,0.183
		c0.322,0,0.666-0.037,1.031-0.112s0.638-0.17,0.816-0.285c0.251-0.164,0.432-0.34,0.542-0.526c0.111-0.186,0.167-0.465,0.167-0.838
		c0-0.479-0.131-0.841-0.392-1.085c-0.262-0.243-0.726-0.447-1.392-0.612c-0.258-0.064-0.595-0.14-1.01-0.225
		c-0.415-0.086-0.799-0.179-1.149-0.279c-0.917-0.265-1.583-0.675-1.998-1.23c-0.415-0.555-0.623-1.226-0.623-2.014
		c0-1.081,0.408-1.962,1.225-2.643c0.816-0.68,1.901-1.021,3.255-1.021c0.666,0,1.336,0.083,2.009,0.247
		c0.673,0.165,1.239,0.373,1.697,0.623v2.159h-0.107c-0.516-0.408-1.09-0.73-1.725-0.967c-0.633-0.236-1.272-0.354-1.917-0.354
		c-0.666,0-1.229,0.14-1.687,0.419s-0.688,0.702-0.688,1.268c0,0.501,0.136,0.875,0.408,1.123s0.709,0.45,1.311,0.607
		c0.301,0.079,0.636,0.156,1.004,0.231c0.369,0.075,0.758,0.163,1.166,0.263c0.888,0.222,1.556,0.591,2.004,1.106
		c0.447,0.515,0.671,1.217,0.671,2.105c0,0.516-0.103,1.005-0.306,1.467c-0.205,0.462-0.504,0.857-0.897,1.187
		c-0.43,0.358-0.915,0.631-1.456,0.816C189.088,26.286,188.409,26.379,187.593,26.379z"/>
</g>
<g>
	<g>
		<defs>
			<path id="SVGID_1_" d="M23.95,18.439c0.365-0.229,0.924-0.438,1.584-0.208c0.857,0.297,0.857,1.257,0.403,1.628
				c-0.343,0.317-1.234,0.381-1.345-0.308c-0.049-0.283,0.182-0.477,0.305-0.529c0.314-0.132,0.737,0.15,0.318,0.349
				c-0.381,0.197-0.315,0.532,0.225,0.346c0.569-0.163,0.706-1.317-0.505-1.289c0,0-1.14,0.086-1.04,1.228
				c0.154,0.855,0.778,1.239,1.582,1.239c0.942,0,1.628-0.692,1.628-1.633c0-0.857-0.749-1.605-1.691-1.605
				C24.775,17.656,24.242,17.916,23.95,18.439"/>
		</defs>
		<clipPath id="SVGID_2_">
			<use xlink:href="#SVGID_1_"  style="overflow:visible;"/>
		</clipPath>
		
			<linearGradient id="SVGID_3_" gradientUnits="userSpaceOnUse" x1="-284.5359" y1="327.0064" x2="-284.4774" y2="327.0064" gradientTransform="matrix(55.0339 0 0 -55.0339 15683.0117 18015.7168)">
			<stop  offset="0" style="stop-color:#A1A1A0"/>
			<stop  offset="0.3458" style="stop-color:#E7E7E7"/>
			<stop  offset="0.758" style="stop-color:#A7A6A6"/>
			<stop  offset="1" style="stop-color:#D1D1D1"/>
		</linearGradient>
		<rect x="23.796" y="17.656" style="clip-path:url(#SVGID_2_);fill:url(#SVGID_3_);" width="3.31" height="3.238"/>
	</g>
	<g>
		<defs>
			<path id="SVGID_4_" d="M23.052,30.361c0,0-1.521,1.898-0.612,3.828c0.38,0.808,1.396,1.902,3.146,1.902
				c2.008-0.082,2.996-1.303,3.189-2.384c0.208-1.163,0.003-1.886-1.295-3.322c-0.77-0.907-0.241-0.995-0.642-1.172
				c-0.342-0.007-0.576,0.26-0.74,0.638c-0.277,0.636-0.46,0.798-0.945,1.529c-0.466,0.701-0.053,1.212-0.053,1.212
				s0.636,0.741,0.818-0.201c0.097-0.593,0.941-0.401,0.941,0.286c0.001,0.689-0.62,1.016-1.273,0.966
				c-1.032-0.078-1.92-0.999-0.915-2.664c0.69-1.027,1.658-2.511,1.658-2.511l-1.016-1.309L23.052,30.361z"/>
		</defs>
		<clipPath id="SVGID_5_">
			<use xlink:href="#SVGID_4_"  style="overflow:visible;"/>
		</clipPath>
		
			<radialGradient id="SVGID_6_" cx="-284.7277" cy="329.9516" r="0.0584" gradientTransform="matrix(67.5371 0 0 -67.5371 19255.1719 22315.5898)" gradientUnits="userSpaceOnUse">
			<stop  offset="0" style="stop-color:#FCDE00"/>
			<stop  offset="0.5" style="stop-color:#FBCD18"/>
			<stop  offset="1" style="stop-color:#D89228"/>
			<stop  offset="1" style="stop-color:#D89228"/>
		</radialGradient>
		<rect x="21.531" y="27.159" style="clip-path:url(#SVGID_5_);fill:url(#SVGID_6_);" width="7.452" height="8.933"/>
	</g>
	<g>
		<defs>
			<path id="SVGID_7_" d="M17.569,23.799l1.255,0.15c0,0,3.496,0.267,1.425-0.407c-1.711-0.557-2.777-0.931-2.777-0.931
				L17.569,23.799z M31.224,23.542c-2.071,0.674,1.425,0.407,1.425,0.407l1.255-0.15l0.096-1.188
				C34.001,22.611,32.935,22.985,31.224,23.542 M12.86,22.629c1.11,0.317,2.359,0.595,3.723,0.824
				c-0.034-0.443-0.031-0.818-0.021-1.077c-1.073-0.29-2.01-0.625-2.783-0.987C13.244,21.705,12.985,22.222,12.86,22.629
				 M34.911,22.376c0.011,0.26,0.013,0.634-0.021,1.077c1.364-0.229,2.613-0.507,3.723-0.824c-0.125-0.407-0.383-0.924-0.919-1.24
				C36.921,21.75,35.984,22.086,34.911,22.376 M9.49,21.334c0.726,0.385,1.611,0.747,2.635,1.074
				c0.379-0.585,0.869-0.995,1.214-1.236c-0.555-0.291-1.006-0.596-1.341-0.907L9.49,21.334z M38.134,21.171
				c0.345,0.241,0.836,0.651,1.214,1.236c1.024-0.327,1.909-0.688,2.635-1.074l-2.508-1.07C39.14,20.575,38.689,20.88,38.134,21.171
				 M7.439,19.594c0.271,0.504,0.8,0.995,1.555,1.457l2.709-1.101c-0.148-0.182-0.257-0.365-0.322-0.547L7.439,19.594z
				 M39.771,19.95l2.709,1.101c0.754-0.462,1.284-0.953,1.555-1.457l-3.942-0.191C40.028,19.585,39.92,19.768,39.771,19.95
				 M7.232,18.823c0,0.154,0.026,0.308,0.076,0.462l4.006-0.186l0,0c-0.003-0.031-0.004-0.063-0.004-0.094
				c0-0.244,0.084-0.483,0.244-0.715h-0.001l-4.157-0.133C7.288,18.373,7.232,18.595,7.232,18.823 M39.922,18.29h-0.001
				c0.16,0.232,0.244,0.471,0.244,0.715c0,0.031-0.002,0.063-0.004,0.094l0,0l4.006,0.186c0.049-0.153,0.076-0.307,0.076-0.462
				c0-0.228-0.056-0.45-0.163-0.666L39.922,18.29z M7.793,17.605l4.185,0.226c0.185-0.157,0.406-0.31,0.662-0.458l0,0l-3.812-0.538
				C8.401,17.078,8.054,17.335,7.793,17.605 M38.833,17.373L38.833,17.373c0.256,0.148,0.477,0.301,0.662,0.459l4.185-0.226
				c-0.26-0.27-0.608-0.527-1.035-0.77L38.833,17.373z M9.592,16.453l3.54,0.662c0.45-0.215,0.975-0.417,1.569-0.604l0,0
				l-2.298-0.98C11.31,15.801,10.365,16.11,9.592,16.453 M36.772,16.511L36.772,16.511c0.594,0.187,1.119,0.389,1.569,0.604
				l3.54-0.662c-0.773-0.343-1.718-0.651-2.811-0.921L36.772,16.511z M13.009,15.389l2.581,0.867c0.41-0.107,0.844-0.207,1.302-0.3
				l-0.505-1.153C15.159,14.966,14.027,15.162,13.009,15.389 M34.582,15.957c0.458,0.093,0.892,0.193,1.302,0.3l2.581-0.867
				c-1.018-0.228-2.15-0.424-3.378-0.586L34.582,15.957z M19.976,14.698c-1.573,0-2.718,0.106-2.718,0.106l0.428,0.916
				c0,0,1.439-0.206,2.233-0.389C20.65,15.164,21.244,14.698,19.976,14.698C19.977,14.698,19.977,14.698,19.976,14.698
				 M31.555,15.331c0.793,0.182,2.233,0.389,2.233,0.389l0.428-0.916c0,0-1.145-0.105-2.718-0.106
				C30.229,14.698,30.823,15.163,31.555,15.331"/>
		</defs>
		<clipPath id="SVGID_8_">
			<use xlink:href="#SVGID_7_"  style="overflow:visible;"/>
		</clipPath>
		
			<linearGradient id="SVGID_9_" gradientUnits="userSpaceOnUse" x1="-283.1662" y1="327.0023" x2="-283.1078" y2="327.0023" gradientTransform="matrix(633.3093 0 0 -633.3093 179339.0469 207113.0625)">
			<stop  offset="0" style="stop-color:#A1A1A0"/>
			<stop  offset="0.3458" style="stop-color:#E7E7E7"/>
			<stop  offset="0.758" style="stop-color:#A7A6A6"/>
			<stop  offset="1" style="stop-color:#D1D1D1"/>
		</linearGradient>
		<rect x="7.232" y="14.698" style="clip-path:url(#SVGID_8_);fill:url(#SVGID_9_);" width="37.01" height="9.519"/>
	</g>
	<g>
		<defs>
			<path id="SVGID_10_" d="M20.117,21.821l0.66,0.082c0,0,1.839,0.146,0.75-0.223c-0.9-0.305-1.46-0.51-1.46-0.51L20.117,21.821z
				 M29.654,21.681c-1.089,0.369,0.75,0.223,0.75,0.223l0.66-0.082l0.051-0.651C31.115,21.171,30.554,21.376,29.654,21.681
				 M17.641,21.18c0.584,0.174,1.24,0.326,1.958,0.452c-0.018-0.243-0.016-0.448-0.011-0.59c-0.564-0.159-1.057-0.343-1.464-0.541
				C17.843,20.674,17.707,20.957,17.641,21.18 M31.593,21.042c0.006,0.142,0.007,0.347-0.011,0.59
				c0.717-0.125,1.374-0.278,1.958-0.452c-0.066-0.223-0.201-0.506-0.483-0.679C32.65,20.699,32.158,20.883,31.593,21.042
				 M15.869,20.471c0.382,0.211,0.847,0.409,1.386,0.588c0.199-0.321,0.457-0.545,0.639-0.677c-0.292-0.16-0.529-0.327-0.705-0.497
				L15.869,20.471z M33.288,20.382c0.182,0.132,0.439,0.357,0.639,0.677c0.539-0.179,1.004-0.377,1.386-0.588l-1.319-0.586
				C33.817,20.055,33.58,20.222,33.288,20.382 M14.79,19.518c0.142,0.276,0.421,0.545,0.818,0.798l1.424-0.603
				c-0.078-0.1-0.135-0.2-0.169-0.3L14.79,19.518z M34.149,19.713l1.424,0.603c0.397-0.253,0.675-0.522,0.817-0.798l-2.073-0.105
				C34.284,19.513,34.227,19.613,34.149,19.713 M14.681,19.095c0,0.085,0.014,0.169,0.04,0.253l2.106-0.102l0,0
				c-0.001-0.017-0.002-0.034-0.002-0.052c0-0.134,0.044-0.264,0.128-0.392h-0.001l-2.186-0.073
				C14.711,18.849,14.681,18.97,14.681,19.095 M34.228,18.803L34.228,18.803c0.084,0.127,0.128,0.258,0.128,0.392
				c0,0.017-0.001,0.034-0.002,0.052l0,0l2.106,0.102c0.026-0.084,0.04-0.168,0.04-0.253c0-0.125-0.03-0.247-0.086-0.365
				L34.228,18.803z M14.976,18.428l2.201,0.124c0.097-0.086,0.214-0.17,0.348-0.251h0l-2.005-0.295
				C15.296,18.139,15.113,18.28,14.976,18.428 M33.656,18.301L33.656,18.301c0.135,0.081,0.251,0.165,0.348,0.251l2.201-0.124
				c-0.137-0.148-0.32-0.289-0.544-0.422L33.656,18.301z M15.922,17.797l1.862,0.363c0.236-0.118,0.513-0.229,0.825-0.331l0,0
				l-1.208-0.537C16.826,17.44,16.329,17.609,15.922,17.797 M32.572,17.829L32.572,17.829c0.312,0.102,0.589,0.213,0.825,0.331
				l1.862-0.363c-0.406-0.188-0.903-0.357-1.478-0.505L32.572,17.829z M17.719,17.214l1.357,0.475
				c0.215-0.058,0.444-0.113,0.685-0.164l-0.266-0.632C18.85,16.982,18.255,17.089,17.719,17.214 M31.42,17.525
				c0.241,0.051,0.469,0.106,0.685,0.164l1.357-0.475c-0.536-0.125-1.131-0.232-1.776-0.321L31.42,17.525z M21.383,16.835
				c-0.827,0-1.429,0.058-1.429,0.058l0.225,0.502c0,0,0.757-0.113,1.174-0.213C21.738,17.09,22.05,16.835,21.383,16.835
				L21.383,16.835 M29.828,17.182c0.417,0.1,1.174,0.213,1.174,0.213l0.225-0.502c0,0-0.602-0.058-1.429-0.058
				C29.131,16.835,29.443,17.09,29.828,17.182"/>
		</defs>
		<clipPath id="SVGID_11_">
			<use xlink:href="#SVGID_10_"  style="overflow:visible;"/>
		</clipPath>
		
			<linearGradient id="SVGID_12_" gradientUnits="userSpaceOnUse" x1="-283.2553" y1="327.0055" x2="-283.1968" y2="327.0055" gradientTransform="matrix(373.3576 0 0 -373.3576 105770.1953 122109.4297)">
			<stop  offset="0" style="stop-color:#A1A1A0"/>
			<stop  offset="0.3458" style="stop-color:#E7E7E7"/>
			<stop  offset="0.758" style="stop-color:#A7A6A6"/>
			<stop  offset="1" style="stop-color:#D1D1D1"/>
		</linearGradient>
		<rect x="14.681" y="16.835" style="clip-path:url(#SVGID_11_);fill:url(#SVGID_12_);" width="21.819" height="5.215"/>
	</g>
	<g>
		<defs>
			<rect id="SVGID_13_" x="2.595" y="1.473" width="46.284" height="35.765"/>
		</defs>
		<clipPath id="SVGID_14_">
			<use xlink:href="#SVGID_13_"  style="overflow:visible;"/>
		</clipPath>
		<path style="clip-path:url(#SVGID_14_);fill:#D89228;" d="M24.667,10.242l1.016,1.309l2.261-3.202c0,0,1.521-1.898,0.612-3.828
			c-0.38-0.808-1.396-1.902-3.146-1.902c-2.008,0.082-2.996,1.303-3.19,2.384c-0.208,1.163-0.003,1.886,1.295,3.322
			c0.77,0.907,0.241,0.995,0.642,1.172c0.342,0.007,0.576-0.26,0.74-0.638c0.277-0.636,0.46-0.798,0.945-1.529
			c0.465-0.701,0.053-1.212,0.053-1.212s-0.636-0.741-0.818,0.201c-0.097,0.593-0.941,0.401-0.941-0.286
			c-0.001-0.689,0.62-1.016,1.273-0.966c1.032,0.078,1.92,0.999,0.915,2.664C25.635,8.758,24.667,10.242,24.667,10.242"/>
		<path style="clip-path:url(#SVGID_14_);fill:#D89228;" d="M24.588,13.82c0.004-0.006,0.008-0.012,0.012-0.019
			c0.117-0.185,0.252-0.36,0.379-0.539c0.04-0.057,0.463-0.604,0.443-0.628c0.176,0.212,0.352,0.424,0.527,0.636
			c0.398,0.48,0.835,0.946,0.779,1.62c-0.058,0.706-0.708,1.094-1.375,1.029c-0.402-0.039-0.802-0.244-0.988-0.617
			c-0.04-0.08-0.068-0.166-0.084-0.254C24.206,14.613,24.361,14.186,24.588,13.82"/>
	</g>
	<g>
		<defs>
			<path id="SVGID_15_" d="M24.267,23.833c-0.055,0.675,0.381,1.14,0.779,1.62c0.176,0.212,0.352,0.424,0.527,0.636
				c-0.019-0.023,0.403-0.57,0.443-0.628c0.126-0.179,0.262-0.354,0.379-0.539c0.004-0.006,0.008-0.012,0.012-0.019
				c0.228-0.366,0.383-0.793,0.306-1.229c-0.015-0.088-0.044-0.174-0.084-0.254c-0.186-0.372-0.586-0.578-0.988-0.617
				c-0.048-0.005-0.096-0.007-0.144-0.007C24.885,22.797,24.321,23.178,24.267,23.833"/>
		</defs>
		<clipPath id="SVGID_16_">
			<use xlink:href="#SVGID_15_"  style="overflow:visible;"/>
		</clipPath>
		
			<radialGradient id="SVGID_17_" cx="-286.8297" cy="330.358" r="0.0584" gradientTransform="matrix(24.902 0 0 -24.902 7168.1294 8251.0156)" gradientUnits="userSpaceOnUse">
			<stop  offset="0" style="stop-color:#FCDE00"/>
			<stop  offset="0.5" style="stop-color:#FBCD18"/>
			<stop  offset="1" style="stop-color:#D89228"/>
			<stop  offset="1" style="stop-color:#D89228"/>
		</radialGradient>
		<rect x="24.212" y="22.797" style="clip-path:url(#SVGID_16_);fill:url(#SVGID_17_);" width="2.578" height="3.292"/>
	</g>
</g>
</svg>
